<?xml version="1.0" encoding="UTF-8"?>
<svg xmlns="http://www.w3.org/2000/svg" xmlns:xlink="http://www.w3.org/1999/xlink" width="84px" height="84px" viewBox="0 0 84 84" version="1.1">
<g id="surface1">
<path style=" stroke:none;fill-rule:nonzero;fill:rgb(0%,47.843137%,49.803922%);fill-opacity:1;" d="M 42 84 C 65.195312 84 84 65.195312 84 42 C 84 18.804688 65.195312 0 42 0 C 18.804688 0 0 18.804688 0 42 C 0 65.195312 18.804688 84 42 84 Z M 42 84 "/>
<path style=" stroke:none;fill-rule:evenodd;fill:rgb(100%,100%,100%);fill-opacity:1;" d="M 65.113281 32.410156 C 65.113281 30.269531 63.371094 28.535156 61.21875 28.535156 C 59.066406 28.535156 57.320312 30.269531 57.320312 32.410156 C 57.320312 34.554688 59.066406 36.292969 61.21875 36.292969 C 63.371094 36.292969 65.113281 34.554688 65.113281 32.410156 Z M 55.492188 52.671875 L 55.492188 49.039062 C 47.851562 51.59375 46.273438 47.101562 46.273438 45.5625 C 46.273438 44.019531 47.449219 40.007812 55.492188 42.066406 L 55.414062 38.140625 C 44.171875 35.390625 39.367188 40.605469 39.367188 45 C 39.367188 49.394531 42.03125 56.109375 55.492188 52.671875 Z M 57.835938 37.640625 L 57.835938 53.480469 L 62.746094 53.480469 L 27.726562 64.75 L 23.230469 53.480469 L 29.320312 53.480469 L 29.320312 48.742188 C 29.714844 48.761719 30.140625 48.773438 30.601562 48.773438 C 34.605469 48.773438 38.722656 46.640625 38.722656 43.527344 C 38.722656 40.410156 36.839844 38.066406 32.457031 37.640625 C 31.523438 37.546875 30.589844 37.476562 29.652344 37.429688 L 22.828125 37.429688 L 22.828125 52.46875 L 13.125 28.140625 L 62.648438 25.375 L 73.5 50.019531 L 64.328125 52.972656 L 64.328125 37.640625 Z M 30.429688 41.035156 C 31.96875 41.183594 32.628906 41.917969 32.628906 43.011719 C 32.628906 44.101562 31.183594 44.9375 29.78125 44.9375 L 29.566406 44.9375 C 29.402344 44.9375 29.195312 44.941406 29.054688 44.9375 L 29.054688 40.960938 L 29.445312 40.960938 C 29.71875 40.96875 30.082031 41 30.429688 41.035156 Z M 30.429688 41.035156 "/>
</g>
</svg>
